<mxfile host="app.diagrams.net" modified="2024-01-17T21:36:14.069Z" agent="Mozilla/5.0 (Windows NT 10.0; Win64; x64) AppleWebKit/537.36 (KHTML, like Gecko) Chrome/120.0.0.0 Safari/537.36 Edg/120.0.0.0" etag="CxcEQ3AJa8UYU_vnUN80" version="22.1.21" type="github">
  <diagram name="Pagina-1" id="-a8NMQQ-U-Xqtfrc5owP">
    <mxGraphModel dx="2224" dy="1959" grid="1" gridSize="10" guides="1" tooltips="1" connect="1" arrows="1" fold="1" page="1" pageScale="1" pageWidth="827" pageHeight="1169" math="0" shadow="0">
      <root>
        <mxCell id="0" />
        <mxCell id="1" parent="0" />
        <mxCell id="HbMBIwUDG-rfj2Xc_2_B-1" value="Utente" style="whiteSpace=wrap;html=1;align=center;" vertex="1" parent="1">
          <mxGeometry x="-19" y="-957" width="100" height="40" as="geometry" />
        </mxCell>
        <mxCell id="HbMBIwUDG-rfj2Xc_2_B-3" value="Password" style="ellipse;whiteSpace=wrap;html=1;align=right;labelPosition=left;verticalLabelPosition=middle;verticalAlign=middle;fillColor=#FFFFFF;strokeColor=default;fillStyle=auto;gradientColor=none;" vertex="1" parent="1">
          <mxGeometry x="-38" y="-916" width="10" height="10" as="geometry" />
        </mxCell>
        <mxCell id="HbMBIwUDG-rfj2Xc_2_B-4" value="Email" style="ellipse;whiteSpace=wrap;html=1;align=right;labelPosition=left;verticalLabelPosition=middle;verticalAlign=middle;fillColor=#FFFFFF;strokeColor=default;fillStyle=auto;gradientColor=none;" vertex="1" parent="1">
          <mxGeometry x="-38" y="-928" width="10" height="10" as="geometry" />
        </mxCell>
        <mxCell id="HbMBIwUDG-rfj2Xc_2_B-5" value="Cognome" style="ellipse;whiteSpace=wrap;html=1;align=right;labelPosition=left;verticalLabelPosition=middle;verticalAlign=middle;fillColor=#FFFFFF;strokeColor=default;fillStyle=auto;gradientColor=none;" vertex="1" parent="1">
          <mxGeometry x="-38" y="-940" width="10" height="10" as="geometry" />
        </mxCell>
        <mxCell id="HbMBIwUDG-rfj2Xc_2_B-6" value="Nome" style="ellipse;whiteSpace=wrap;html=1;align=right;labelPosition=left;verticalLabelPosition=middle;verticalAlign=middle;fillColor=#FFFFFF;strokeColor=default;fillStyle=auto;gradientColor=none;" vertex="1" parent="1">
          <mxGeometry x="-38" y="-952" width="10" height="10" as="geometry" />
        </mxCell>
        <mxCell id="HbMBIwUDG-rfj2Xc_2_B-7" value="ID_Utente" style="ellipse;whiteSpace=wrap;html=1;align=right;fontStyle=4;labelBackgroundColor=none;labelPosition=left;verticalLabelPosition=middle;verticalAlign=middle;fillColor=#000000;" vertex="1" parent="1">
          <mxGeometry x="-38" y="-964" width="10" height="10" as="geometry" />
        </mxCell>
        <mxCell id="HbMBIwUDG-rfj2Xc_2_B-8" value="" style="endArrow=none;html=1;rounded=0;entryX=0;entryY=0.25;entryDx=0;entryDy=0;exitX=1;exitY=0.5;exitDx=0;exitDy=0;" edge="1" parent="1" source="HbMBIwUDG-rfj2Xc_2_B-7" target="HbMBIwUDG-rfj2Xc_2_B-1">
          <mxGeometry width="50" height="50" relative="1" as="geometry">
            <mxPoint x="-39" y="-967" as="sourcePoint" />
            <mxPoint x="1" y="-1007" as="targetPoint" />
          </mxGeometry>
        </mxCell>
        <mxCell id="HbMBIwUDG-rfj2Xc_2_B-10" value="" style="endArrow=none;html=1;rounded=0;entryX=1;entryY=0.5;entryDx=0;entryDy=0;exitX=0.003;exitY=0.455;exitDx=0;exitDy=0;exitPerimeter=0;" edge="1" parent="1" source="HbMBIwUDG-rfj2Xc_2_B-1" target="HbMBIwUDG-rfj2Xc_2_B-6">
          <mxGeometry width="50" height="50" relative="1" as="geometry">
            <mxPoint x="-18" y="-929" as="sourcePoint" />
            <mxPoint x="-39" y="-934" as="targetPoint" />
          </mxGeometry>
        </mxCell>
        <mxCell id="HbMBIwUDG-rfj2Xc_2_B-11" value="" style="endArrow=none;html=1;rounded=0;entryX=1;entryY=0.5;entryDx=0;entryDy=0;exitX=0;exitY=0.548;exitDx=0;exitDy=0;exitPerimeter=0;" edge="1" parent="1" source="HbMBIwUDG-rfj2Xc_2_B-1" target="HbMBIwUDG-rfj2Xc_2_B-5">
          <mxGeometry width="50" height="50" relative="1" as="geometry">
            <mxPoint x="-28" y="-917.5" as="sourcePoint" />
            <mxPoint x="-49" y="-922.5" as="targetPoint" />
          </mxGeometry>
        </mxCell>
        <mxCell id="HbMBIwUDG-rfj2Xc_2_B-12" value="" style="endArrow=none;html=1;rounded=0;entryX=1;entryY=0.5;entryDx=0;entryDy=0;exitX=0;exitY=0.648;exitDx=0;exitDy=0;exitPerimeter=0;" edge="1" parent="1" source="HbMBIwUDG-rfj2Xc_2_B-1" target="HbMBIwUDG-rfj2Xc_2_B-4">
          <mxGeometry width="50" height="50" relative="1" as="geometry">
            <mxPoint x="-19" y="-923" as="sourcePoint" />
            <mxPoint x="-39" y="-910" as="targetPoint" />
          </mxGeometry>
        </mxCell>
        <mxCell id="HbMBIwUDG-rfj2Xc_2_B-13" value="" style="endArrow=none;html=1;rounded=0;entryX=1;entryY=0.5;entryDx=0;entryDy=0;exitX=0;exitY=0.75;exitDx=0;exitDy=0;" edge="1" parent="1" source="HbMBIwUDG-rfj2Xc_2_B-1" target="HbMBIwUDG-rfj2Xc_2_B-3">
          <mxGeometry width="50" height="50" relative="1" as="geometry">
            <mxPoint x="-9" y="-913" as="sourcePoint" />
            <mxPoint x="-29" y="-900" as="targetPoint" />
          </mxGeometry>
        </mxCell>
        <mxCell id="HbMBIwUDG-rfj2Xc_2_B-122" style="edgeStyle=none;shape=connector;curved=0;rounded=0;orthogonalLoop=1;jettySize=auto;html=1;exitX=0.5;exitY=1;exitDx=0;exitDy=0;entryX=0.5;entryY=0;entryDx=0;entryDy=0;labelBackgroundColor=default;strokeColor=default;align=center;verticalAlign=middle;fontFamily=Helvetica;fontSize=11;fontColor=default;endArrow=none;sourcePerimeterSpacing=0;targetPerimeterSpacing=0;" edge="1" parent="1" source="HbMBIwUDG-rfj2Xc_2_B-14" target="HbMBIwUDG-rfj2Xc_2_B-121">
          <mxGeometry relative="1" as="geometry" />
        </mxCell>
        <mxCell id="HbMBIwUDG-rfj2Xc_2_B-144" style="edgeStyle=none;shape=connector;curved=0;rounded=0;orthogonalLoop=1;jettySize=auto;html=1;exitX=0.5;exitY=1;exitDx=0;exitDy=0;entryX=0.5;entryY=0;entryDx=0;entryDy=0;labelBackgroundColor=default;strokeColor=default;align=center;verticalAlign=middle;fontFamily=Helvetica;fontSize=11;fontColor=default;endArrow=none;sourcePerimeterSpacing=0;targetPerimeterSpacing=0;" edge="1" parent="1" source="HbMBIwUDG-rfj2Xc_2_B-14" target="HbMBIwUDG-rfj2Xc_2_B-143">
          <mxGeometry relative="1" as="geometry" />
        </mxCell>
        <mxCell id="HbMBIwUDG-rfj2Xc_2_B-14" value="Progetto" style="whiteSpace=wrap;html=1;align=center;" vertex="1" parent="1">
          <mxGeometry x="-19" y="-473" width="100" height="40" as="geometry" />
        </mxCell>
        <mxCell id="HbMBIwUDG-rfj2Xc_2_B-15" value="Nome" style="ellipse;whiteSpace=wrap;html=1;align=right;labelPosition=left;verticalLabelPosition=middle;verticalAlign=middle;fillColor=#FFFFFF;strokeColor=default;fillStyle=auto;gradientColor=none;" vertex="1" parent="1">
          <mxGeometry x="-37" y="-464" width="10" height="10" as="geometry" />
        </mxCell>
        <mxCell id="HbMBIwUDG-rfj2Xc_2_B-16" value="Scadenza" style="ellipse;whiteSpace=wrap;html=1;align=right;labelPosition=left;verticalLabelPosition=middle;verticalAlign=middle;fillColor=#FFFFFF;strokeColor=default;fillStyle=auto;gradientColor=none;" vertex="1" parent="1">
          <mxGeometry x="-37" y="-440" width="10" height="10" as="geometry" />
        </mxCell>
        <mxCell id="HbMBIwUDG-rfj2Xc_2_B-17" value="Descrizione" style="ellipse;whiteSpace=wrap;html=1;align=right;labelPosition=left;verticalLabelPosition=middle;verticalAlign=middle;fillColor=#FFFFFF;strokeColor=default;fillStyle=auto;gradientColor=none;" vertex="1" parent="1">
          <mxGeometry x="-37" y="-452" width="10" height="10" as="geometry" />
        </mxCell>
        <mxCell id="HbMBIwUDG-rfj2Xc_2_B-18" value="ID_Progetto" style="ellipse;whiteSpace=wrap;html=1;align=right;fontStyle=4;labelBackgroundColor=none;labelPosition=left;verticalLabelPosition=middle;verticalAlign=middle;fillColor=#000000;" vertex="1" parent="1">
          <mxGeometry x="-37" y="-476" width="10" height="10" as="geometry" />
        </mxCell>
        <mxCell id="HbMBIwUDG-rfj2Xc_2_B-19" value="" style="endArrow=none;html=1;rounded=0;entryX=0;entryY=0.25;entryDx=0;entryDy=0;exitX=1;exitY=0.5;exitDx=0;exitDy=0;" edge="1" parent="1" source="HbMBIwUDG-rfj2Xc_2_B-18" target="HbMBIwUDG-rfj2Xc_2_B-14">
          <mxGeometry width="50" height="50" relative="1" as="geometry">
            <mxPoint x="-29" y="-485" as="sourcePoint" />
            <mxPoint x="11" y="-525" as="targetPoint" />
          </mxGeometry>
        </mxCell>
        <mxCell id="HbMBIwUDG-rfj2Xc_2_B-20" value="" style="endArrow=none;html=1;rounded=0;entryX=1;entryY=0.5;entryDx=0;entryDy=0;exitX=-0.004;exitY=0.392;exitDx=0;exitDy=0;exitPerimeter=0;" edge="1" parent="1" source="HbMBIwUDG-rfj2Xc_2_B-14" target="HbMBIwUDG-rfj2Xc_2_B-15">
          <mxGeometry width="50" height="50" relative="1" as="geometry">
            <mxPoint x="-49" y="-425" as="sourcePoint" />
            <mxPoint x="1" y="-475" as="targetPoint" />
          </mxGeometry>
        </mxCell>
        <mxCell id="HbMBIwUDG-rfj2Xc_2_B-21" value="" style="endArrow=none;html=1;rounded=0;entryX=1;entryY=0.5;entryDx=0;entryDy=0;exitX=0;exitY=0.606;exitDx=0;exitDy=0;exitPerimeter=0;" edge="1" parent="1" source="HbMBIwUDG-rfj2Xc_2_B-14" target="HbMBIwUDG-rfj2Xc_2_B-17">
          <mxGeometry width="50" height="50" relative="1" as="geometry">
            <mxPoint x="-8" y="-447" as="sourcePoint" />
            <mxPoint x="-29" y="-452" as="targetPoint" />
          </mxGeometry>
        </mxCell>
        <mxCell id="HbMBIwUDG-rfj2Xc_2_B-22" value="" style="endArrow=none;html=1;rounded=0;entryX=1;entryY=0.5;entryDx=0;entryDy=0;exitX=0;exitY=0.75;exitDx=0;exitDy=0;" edge="1" parent="1" source="HbMBIwUDG-rfj2Xc_2_B-14" target="HbMBIwUDG-rfj2Xc_2_B-16">
          <mxGeometry width="50" height="50" relative="1" as="geometry">
            <mxPoint x="-18" y="-435.5" as="sourcePoint" />
            <mxPoint x="-39" y="-440.5" as="targetPoint" />
          </mxGeometry>
        </mxCell>
        <mxCell id="HbMBIwUDG-rfj2Xc_2_B-23" value="Attività" style="whiteSpace=wrap;html=1;align=center;flipH=0;flipV=0;" vertex="1" parent="1">
          <mxGeometry x="341" y="-958" width="100" height="40" as="geometry" />
        </mxCell>
        <mxCell id="HbMBIwUDG-rfj2Xc_2_B-24" value="Nome" style="ellipse;whiteSpace=wrap;html=1;align=left;labelPosition=right;verticalLabelPosition=middle;verticalAlign=middle;fillColor=#FFFFFF;strokeColor=default;fillStyle=auto;gradientColor=none;" vertex="1" parent="1">
          <mxGeometry x="450" y="-970" width="10" height="10" as="geometry" />
        </mxCell>
        <mxCell id="HbMBIwUDG-rfj2Xc_2_B-25" value="Stato" style="ellipse;whiteSpace=wrap;html=1;align=left;labelPosition=right;verticalLabelPosition=middle;verticalAlign=middle;fillColor=#FFFFFF;strokeColor=default;fillStyle=auto;gradientColor=none;" vertex="1" parent="1">
          <mxGeometry x="450" y="-910" width="10" height="10" as="geometry" />
        </mxCell>
        <mxCell id="HbMBIwUDG-rfj2Xc_2_B-26" value="Scadenza" style="ellipse;whiteSpace=wrap;html=1;align=left;labelPosition=right;verticalLabelPosition=middle;verticalAlign=middle;fillColor=#FFFFFF;strokeColor=default;fillStyle=auto;gradientColor=none;" vertex="1" parent="1">
          <mxGeometry x="450" y="-946" width="10" height="10" as="geometry" />
        </mxCell>
        <mxCell id="HbMBIwUDG-rfj2Xc_2_B-27" value="Descrizione" style="ellipse;whiteSpace=wrap;html=1;align=left;labelPosition=right;verticalLabelPosition=middle;verticalAlign=middle;fillColor=#FFFFFF;strokeColor=default;fillStyle=auto;gradientColor=none;" vertex="1" parent="1">
          <mxGeometry x="450" y="-958" width="10" height="10" as="geometry" />
        </mxCell>
        <mxCell id="HbMBIwUDG-rfj2Xc_2_B-28" value="ID_Attività" style="ellipse;whiteSpace=wrap;html=1;align=left;fontStyle=4;labelBackgroundColor=none;labelPosition=right;verticalLabelPosition=middle;verticalAlign=middle;fillColor=#000000;" vertex="1" parent="1">
          <mxGeometry x="450" y="-982" width="10" height="10" as="geometry" />
        </mxCell>
        <mxCell id="HbMBIwUDG-rfj2Xc_2_B-29" value="" style="endArrow=none;html=1;rounded=0;entryX=1.001;entryY=0.138;entryDx=0;entryDy=0;exitX=0;exitY=0.5;exitDx=0;exitDy=0;entryPerimeter=0;" edge="1" parent="1" source="HbMBIwUDG-rfj2Xc_2_B-28" target="HbMBIwUDG-rfj2Xc_2_B-23">
          <mxGeometry width="50" height="50" relative="1" as="geometry">
            <mxPoint x="356" y="-972" as="sourcePoint" />
            <mxPoint x="396" y="-1012" as="targetPoint" />
          </mxGeometry>
        </mxCell>
        <mxCell id="HbMBIwUDG-rfj2Xc_2_B-30" value="" style="endArrow=none;html=1;rounded=0;entryX=0;entryY=0.5;entryDx=0;entryDy=0;exitX=1;exitY=0.25;exitDx=0;exitDy=0;" edge="1" parent="1" source="HbMBIwUDG-rfj2Xc_2_B-23" target="HbMBIwUDG-rfj2Xc_2_B-24">
          <mxGeometry width="50" height="50" relative="1" as="geometry">
            <mxPoint x="446" y="-952" as="sourcePoint" />
            <mxPoint x="386" y="-962" as="targetPoint" />
          </mxGeometry>
        </mxCell>
        <mxCell id="HbMBIwUDG-rfj2Xc_2_B-31" value="" style="endArrow=none;html=1;rounded=0;entryX=0;entryY=0.5;entryDx=0;entryDy=0;exitX=1.003;exitY=0.35;exitDx=0;exitDy=0;exitPerimeter=0;" edge="1" parent="1" source="HbMBIwUDG-rfj2Xc_2_B-23" target="HbMBIwUDG-rfj2Xc_2_B-27">
          <mxGeometry width="50" height="50" relative="1" as="geometry">
            <mxPoint x="466" y="-946" as="sourcePoint" />
            <mxPoint x="566" y="-956" as="targetPoint" />
          </mxGeometry>
        </mxCell>
        <mxCell id="HbMBIwUDG-rfj2Xc_2_B-32" value="" style="endArrow=none;html=1;rounded=0;exitX=1.001;exitY=0.472;exitDx=0;exitDy=0;exitPerimeter=0;entryX=0;entryY=0.5;entryDx=0;entryDy=0;" edge="1" parent="1" source="HbMBIwUDG-rfj2Xc_2_B-23" target="HbMBIwUDG-rfj2Xc_2_B-26">
          <mxGeometry width="50" height="50" relative="1" as="geometry">
            <mxPoint x="367" y="-922.5" as="sourcePoint" />
            <mxPoint x="576" y="-942" as="targetPoint" />
          </mxGeometry>
        </mxCell>
        <mxCell id="HbMBIwUDG-rfj2Xc_2_B-33" value="" style="endArrow=none;html=1;rounded=0;exitX=1;exitY=0.879;exitDx=0;exitDy=0;exitPerimeter=0;entryX=0;entryY=0.5;entryDx=0;entryDy=0;" edge="1" parent="1" source="HbMBIwUDG-rfj2Xc_2_B-23" target="HbMBIwUDG-rfj2Xc_2_B-25">
          <mxGeometry width="50" height="50" relative="1" as="geometry">
            <mxPoint x="376" y="-928" as="sourcePoint" />
            <mxPoint x="576" y="-905" as="targetPoint" />
          </mxGeometry>
        </mxCell>
        <mxCell id="HbMBIwUDG-rfj2Xc_2_B-34" value="Team" style="whiteSpace=wrap;html=1;align=center;" vertex="1" parent="1">
          <mxGeometry x="-19" y="-630" width="100" height="40" as="geometry" />
        </mxCell>
        <mxCell id="HbMBIwUDG-rfj2Xc_2_B-35" value="Numero_Progetti" style="ellipse;whiteSpace=wrap;html=1;align=right;labelPosition=left;verticalLabelPosition=middle;verticalAlign=middle;fillColor=#FFFFFF;strokeColor=default;fillStyle=auto;gradientColor=none;" vertex="1" parent="1">
          <mxGeometry x="-34" y="-605" width="10" height="10" as="geometry" />
        </mxCell>
        <mxCell id="HbMBIwUDG-rfj2Xc_2_B-36" value="Nome" style="ellipse;whiteSpace=wrap;html=1;align=right;fontStyle=4;labelBackgroundColor=none;labelPosition=left;verticalLabelPosition=middle;verticalAlign=middle;fillColor=#000000;" vertex="1" parent="1">
          <mxGeometry x="-34" y="-625" width="10" height="10" as="geometry" />
        </mxCell>
        <mxCell id="HbMBIwUDG-rfj2Xc_2_B-37" value="" style="endArrow=none;html=1;rounded=0;entryX=0;entryY=0.25;entryDx=0;entryDy=0;exitX=1;exitY=0.5;exitDx=0;exitDy=0;" edge="1" parent="1" source="HbMBIwUDG-rfj2Xc_2_B-36" target="HbMBIwUDG-rfj2Xc_2_B-34">
          <mxGeometry width="50" height="50" relative="1" as="geometry">
            <mxPoint x="-30" y="-645" as="sourcePoint" />
            <mxPoint x="10" y="-685" as="targetPoint" />
          </mxGeometry>
        </mxCell>
        <mxCell id="HbMBIwUDG-rfj2Xc_2_B-38" value="" style="endArrow=none;html=1;rounded=0;entryX=1;entryY=0.5;entryDx=0;entryDy=0;exitX=0;exitY=0.75;exitDx=0;exitDy=0;" edge="1" parent="1" source="HbMBIwUDG-rfj2Xc_2_B-34" target="HbMBIwUDG-rfj2Xc_2_B-35">
          <mxGeometry width="50" height="50" relative="1" as="geometry">
            <mxPoint x="-50" y="-585" as="sourcePoint" />
            <mxPoint y="-635" as="targetPoint" />
          </mxGeometry>
        </mxCell>
        <mxCell id="HbMBIwUDG-rfj2Xc_2_B-39" value="Documento" style="whiteSpace=wrap;html=1;align=center;" vertex="1" parent="1">
          <mxGeometry x="341" y="-1109" width="100" height="40" as="geometry" />
        </mxCell>
        <mxCell id="HbMBIwUDG-rfj2Xc_2_B-40" value="Appartenenza" style="shape=rhombus;perimeter=rhombusPerimeter;whiteSpace=wrap;html=1;align=center;" vertex="1" parent="1">
          <mxGeometry x="-140" y="-736" width="120" height="60" as="geometry" />
        </mxCell>
        <mxCell id="HbMBIwUDG-rfj2Xc_2_B-41" value="Finalità" style="shape=rhombus;perimeter=rhombusPerimeter;whiteSpace=wrap;html=1;align=center;" vertex="1" parent="1">
          <mxGeometry x="331" y="-483" width="120" height="60" as="geometry" />
        </mxCell>
        <mxCell id="HbMBIwUDG-rfj2Xc_2_B-42" value="Data_Inizio" style="ellipse;whiteSpace=wrap;html=1;align=left;labelPosition=right;verticalLabelPosition=middle;verticalAlign=middle;fillColor=#FFFFFF;strokeColor=default;fillStyle=auto;gradientColor=none;" vertex="1" parent="1">
          <mxGeometry x="450" y="-934" width="10" height="10" as="geometry" />
        </mxCell>
        <mxCell id="HbMBIwUDG-rfj2Xc_2_B-43" value="Data_Fine" style="ellipse;whiteSpace=wrap;html=1;align=left;labelPosition=right;verticalLabelPosition=middle;verticalAlign=middle;fillColor=#FFFFFF;strokeColor=default;fillStyle=auto;gradientColor=none;" vertex="1" parent="1">
          <mxGeometry x="450" y="-922" width="10" height="10" as="geometry" />
        </mxCell>
        <mxCell id="HbMBIwUDG-rfj2Xc_2_B-44" value="" style="endArrow=none;html=1;rounded=0;exitX=1;exitY=0.606;exitDx=0;exitDy=0;exitPerimeter=0;entryX=0;entryY=0.5;entryDx=0;entryDy=0;" edge="1" parent="1" source="HbMBIwUDG-rfj2Xc_2_B-23" target="HbMBIwUDG-rfj2Xc_2_B-42">
          <mxGeometry width="50" height="50" relative="1" as="geometry">
            <mxPoint x="446" y="-932" as="sourcePoint" />
            <mxPoint x="576" y="-929" as="targetPoint" />
          </mxGeometry>
        </mxCell>
        <mxCell id="HbMBIwUDG-rfj2Xc_2_B-45" value="" style="endArrow=none;html=1;rounded=0;entryX=0;entryY=0.5;entryDx=0;entryDy=0;exitX=1;exitY=0.75;exitDx=0;exitDy=0;" edge="1" parent="1" source="HbMBIwUDG-rfj2Xc_2_B-23" target="HbMBIwUDG-rfj2Xc_2_B-43">
          <mxGeometry width="50" height="50" relative="1" as="geometry">
            <mxPoint x="476" y="-922" as="sourcePoint" />
            <mxPoint x="356" y="-906" as="targetPoint" />
          </mxGeometry>
        </mxCell>
        <mxCell id="HbMBIwUDG-rfj2Xc_2_B-46" value="Responsabilità" style="shape=rhombus;perimeter=rhombusPerimeter;whiteSpace=wrap;html=1;align=center;" vertex="1" parent="1">
          <mxGeometry x="-29" y="-568" width="120" height="60" as="geometry" />
        </mxCell>
        <mxCell id="HbMBIwUDG-rfj2Xc_2_B-47" value="" style="endArrow=none;html=1;rounded=0;entryX=0.5;entryY=1;entryDx=0;entryDy=0;exitX=0.5;exitY=0;exitDx=0;exitDy=0;" edge="1" parent="1" source="HbMBIwUDG-rfj2Xc_2_B-46" target="HbMBIwUDG-rfj2Xc_2_B-34">
          <mxGeometry width="50" height="50" relative="1" as="geometry">
            <mxPoint x="80" y="-496" as="sourcePoint" />
            <mxPoint x="130" y="-546" as="targetPoint" />
          </mxGeometry>
        </mxCell>
        <mxCell id="HbMBIwUDG-rfj2Xc_2_B-48" value="" style="endArrow=none;html=1;rounded=0;entryX=0.5;entryY=1;entryDx=0;entryDy=0;exitX=0.5;exitY=0;exitDx=0;exitDy=0;" edge="1" parent="1" source="HbMBIwUDG-rfj2Xc_2_B-14" target="HbMBIwUDG-rfj2Xc_2_B-46">
          <mxGeometry width="50" height="50" relative="1" as="geometry">
            <mxPoint x="41" y="-558" as="sourcePoint" />
            <mxPoint x="41" y="-599" as="targetPoint" />
          </mxGeometry>
        </mxCell>
        <mxCell id="HbMBIwUDG-rfj2Xc_2_B-49" value="Direzione" style="shape=rhombus;perimeter=rhombusPerimeter;whiteSpace=wrap;html=1;align=center;" vertex="1" parent="1">
          <mxGeometry x="81" y="-736" width="120" height="60" as="geometry" />
        </mxCell>
        <mxCell id="HbMBIwUDG-rfj2Xc_2_B-50" value="" style="endArrow=none;html=1;rounded=0;exitX=0.5;exitY=0;exitDx=0;exitDy=0;entryX=0.5;entryY=1;entryDx=0;entryDy=0;" edge="1" parent="1" source="HbMBIwUDG-rfj2Xc_2_B-40" target="HbMBIwUDG-rfj2Xc_2_B-82">
          <mxGeometry width="50" height="50" relative="1" as="geometry">
            <mxPoint x="-29" y="-726" as="sourcePoint" />
            <mxPoint x="-10" y="-766" as="targetPoint" />
          </mxGeometry>
        </mxCell>
        <mxCell id="HbMBIwUDG-rfj2Xc_2_B-51" value="" style="endArrow=none;html=1;rounded=0;exitX=0.5;exitY=0;exitDx=0;exitDy=0;entryX=0.5;entryY=1;entryDx=0;entryDy=0;" edge="1" parent="1" source="HbMBIwUDG-rfj2Xc_2_B-49" target="HbMBIwUDG-rfj2Xc_2_B-79">
          <mxGeometry width="50" height="50" relative="1" as="geometry">
            <mxPoint x="6" y="-719" as="sourcePoint" />
            <mxPoint x="60" y="-766" as="targetPoint" />
          </mxGeometry>
        </mxCell>
        <mxCell id="HbMBIwUDG-rfj2Xc_2_B-52" value="" style="endArrow=none;html=1;rounded=0;entryX=0.5;entryY=1;entryDx=0;entryDy=0;exitX=0.25;exitY=0;exitDx=0;exitDy=0;" edge="1" parent="1" source="HbMBIwUDG-rfj2Xc_2_B-34" target="HbMBIwUDG-rfj2Xc_2_B-40">
          <mxGeometry width="50" height="50" relative="1" as="geometry">
            <mxPoint x="-69" y="-726" as="sourcePoint" />
            <mxPoint x="16" y="-773" as="targetPoint" />
          </mxGeometry>
        </mxCell>
        <mxCell id="HbMBIwUDG-rfj2Xc_2_B-53" value="" style="endArrow=none;html=1;rounded=0;entryX=0.5;entryY=1;entryDx=0;entryDy=0;exitX=0.75;exitY=0;exitDx=0;exitDy=0;" edge="1" parent="1" source="HbMBIwUDG-rfj2Xc_2_B-34" target="HbMBIwUDG-rfj2Xc_2_B-49">
          <mxGeometry width="50" height="50" relative="1" as="geometry">
            <mxPoint x="85" y="-602" as="sourcePoint" />
            <mxPoint x="170" y="-649" as="targetPoint" />
          </mxGeometry>
        </mxCell>
        <mxCell id="HbMBIwUDG-rfj2Xc_2_B-54" value="Assegnazione" style="shape=rhombus;perimeter=rhombusPerimeter;whiteSpace=wrap;html=1;align=center;" vertex="1" parent="1">
          <mxGeometry x="160" y="-967" width="120" height="60" as="geometry" />
        </mxCell>
        <mxCell id="HbMBIwUDG-rfj2Xc_2_B-55" value="" style="endArrow=none;html=1;rounded=0;entryX=0;entryY=0.5;entryDx=0;entryDy=0;exitX=1;exitY=0.5;exitDx=0;exitDy=0;" edge="1" parent="1" source="HbMBIwUDG-rfj2Xc_2_B-1" target="HbMBIwUDG-rfj2Xc_2_B-54">
          <mxGeometry width="50" height="50" relative="1" as="geometry">
            <mxPoint x="81" y="-934" as="sourcePoint" />
            <mxPoint x="166" y="-981" as="targetPoint" />
          </mxGeometry>
        </mxCell>
        <mxCell id="HbMBIwUDG-rfj2Xc_2_B-56" value="" style="endArrow=none;html=1;rounded=0;entryX=0;entryY=0.5;entryDx=0;entryDy=0;exitX=1;exitY=0.5;exitDx=0;exitDy=0;" edge="1" parent="1" source="HbMBIwUDG-rfj2Xc_2_B-54" target="HbMBIwUDG-rfj2Xc_2_B-23">
          <mxGeometry width="50" height="50" relative="1" as="geometry">
            <mxPoint x="240" y="-833" as="sourcePoint" />
            <mxPoint x="325" y="-880" as="targetPoint" />
          </mxGeometry>
        </mxCell>
        <mxCell id="HbMBIwUDG-rfj2Xc_2_B-57" value="" style="endArrow=none;html=1;rounded=0;entryX=0.5;entryY=1;entryDx=0;entryDy=0;exitX=0.5;exitY=0;exitDx=0;exitDy=0;" edge="1" parent="1" source="HbMBIwUDG-rfj2Xc_2_B-41" target="HbMBIwUDG-rfj2Xc_2_B-23">
          <mxGeometry width="50" height="50" relative="1" as="geometry">
            <mxPoint x="340" y="-803" as="sourcePoint" />
            <mxPoint x="425" y="-850" as="targetPoint" />
          </mxGeometry>
        </mxCell>
        <mxCell id="HbMBIwUDG-rfj2Xc_2_B-58" value="" style="endArrow=none;html=1;rounded=0;entryX=0;entryY=0.5;entryDx=0;entryDy=0;exitX=1;exitY=0.5;exitDx=0;exitDy=0;" edge="1" parent="1" source="HbMBIwUDG-rfj2Xc_2_B-14" target="HbMBIwUDG-rfj2Xc_2_B-41">
          <mxGeometry width="50" height="50" relative="1" as="geometry">
            <mxPoint x="177.5" y="-447.5" as="sourcePoint" />
            <mxPoint x="262.5" y="-494.5" as="targetPoint" />
          </mxGeometry>
        </mxCell>
        <mxCell id="HbMBIwUDG-rfj2Xc_2_B-59" value="Data_Inizio" style="ellipse;whiteSpace=wrap;html=1;align=left;labelPosition=right;verticalLabelPosition=middle;verticalAlign=middle;fillColor=#FFFFFF;strokeColor=default;fillStyle=auto;gradientColor=none;" vertex="1" parent="1">
          <mxGeometry x="240" y="-989" width="10" height="10" as="geometry" />
        </mxCell>
        <mxCell id="HbMBIwUDG-rfj2Xc_2_B-60" value="Data_Fine" style="ellipse;whiteSpace=wrap;html=1;align=left;labelPosition=right;verticalLabelPosition=middle;verticalAlign=middle;fillColor=#FFFFFF;strokeColor=default;fillStyle=auto;gradientColor=none;" vertex="1" parent="1">
          <mxGeometry x="240" y="-977" width="10" height="10" as="geometry" />
        </mxCell>
        <mxCell id="HbMBIwUDG-rfj2Xc_2_B-61" value="" style="endArrow=none;html=1;rounded=0;entryX=0;entryY=0.5;entryDx=0;entryDy=0;exitX=0.575;exitY=0.08;exitDx=0;exitDy=0;exitPerimeter=0;" edge="1" parent="1" source="HbMBIwUDG-rfj2Xc_2_B-54" target="HbMBIwUDG-rfj2Xc_2_B-59">
          <mxGeometry width="50" height="50" relative="1" as="geometry">
            <mxPoint x="230" y="-970" as="sourcePoint" />
            <mxPoint x="240" y="-920" as="targetPoint" />
          </mxGeometry>
        </mxCell>
        <mxCell id="HbMBIwUDG-rfj2Xc_2_B-62" value="" style="endArrow=none;html=1;rounded=0;exitX=0.654;exitY=0.151;exitDx=0;exitDy=0;exitPerimeter=0;entryX=0.371;entryY=0.954;entryDx=0;entryDy=0;entryPerimeter=0;" edge="1" parent="1" source="HbMBIwUDG-rfj2Xc_2_B-54" target="HbMBIwUDG-rfj2Xc_2_B-60">
          <mxGeometry width="50" height="50" relative="1" as="geometry">
            <mxPoint x="239" y="-952" as="sourcePoint" />
            <mxPoint x="240" y="-960" as="targetPoint" />
          </mxGeometry>
        </mxCell>
        <mxCell id="HbMBIwUDG-rfj2Xc_2_B-99" style="edgeStyle=none;shape=connector;curved=0;rounded=0;orthogonalLoop=1;jettySize=auto;html=1;exitX=1;exitY=0.5;exitDx=0;exitDy=0;entryX=0;entryY=0.5;entryDx=0;entryDy=0;labelBackgroundColor=default;strokeColor=default;align=center;verticalAlign=middle;fontFamily=Helvetica;fontSize=11;fontColor=default;endArrow=none;sourcePerimeterSpacing=0;targetPerimeterSpacing=0;" edge="1" parent="1" source="HbMBIwUDG-rfj2Xc_2_B-63" target="HbMBIwUDG-rfj2Xc_2_B-39">
          <mxGeometry relative="1" as="geometry" />
        </mxCell>
        <mxCell id="HbMBIwUDG-rfj2Xc_2_B-102" style="edgeStyle=none;shape=connector;curved=0;rounded=0;orthogonalLoop=1;jettySize=auto;html=1;exitX=0;exitY=0.5;exitDx=0;exitDy=0;labelBackgroundColor=default;strokeColor=default;align=center;verticalAlign=middle;fontFamily=Helvetica;fontSize=11;fontColor=default;endArrow=none;sourcePerimeterSpacing=0;targetPerimeterSpacing=0;entryX=0.5;entryY=0;entryDx=0;entryDy=0;" edge="1" parent="1" source="HbMBIwUDG-rfj2Xc_2_B-63" target="HbMBIwUDG-rfj2Xc_2_B-1">
          <mxGeometry relative="1" as="geometry">
            <mxPoint x="90" y="-1090" as="targetPoint" />
            <Array as="points">
              <mxPoint x="90" y="-1090" />
              <mxPoint x="31" y="-1090" />
            </Array>
          </mxGeometry>
        </mxCell>
        <mxCell id="HbMBIwUDG-rfj2Xc_2_B-63" value="Creazione" style="shape=rhombus;perimeter=rhombusPerimeter;whiteSpace=wrap;html=1;align=center;" vertex="1" parent="1">
          <mxGeometry x="160" y="-1154" width="120" height="60" as="geometry" />
        </mxCell>
        <mxCell id="HbMBIwUDG-rfj2Xc_2_B-65" value="Formato" style="ellipse;whiteSpace=wrap;html=1;align=left;labelPosition=right;verticalLabelPosition=middle;verticalAlign=middle;fillColor=#FFFFFF;strokeColor=default;fillStyle=auto;gradientColor=none;" vertex="1" parent="1">
          <mxGeometry x="451" y="-1106" width="10" height="10" as="geometry" />
        </mxCell>
        <mxCell id="HbMBIwUDG-rfj2Xc_2_B-66" value="Ultima_Modifica" style="ellipse;whiteSpace=wrap;html=1;align=left;labelPosition=right;verticalLabelPosition=middle;verticalAlign=middle;fillColor=#FFFFFF;strokeColor=default;fillStyle=auto;gradientColor=none;" vertex="1" parent="1">
          <mxGeometry x="451" y="-1070" width="10" height="10" as="geometry" />
        </mxCell>
        <mxCell id="HbMBIwUDG-rfj2Xc_2_B-67" value="Data_Creazione" style="ellipse;whiteSpace=wrap;html=1;align=left;labelPosition=right;verticalLabelPosition=middle;verticalAlign=middle;fillColor=#FFFFFF;strokeColor=default;fillStyle=auto;gradientColor=none;" vertex="1" parent="1">
          <mxGeometry x="451" y="-1082" width="10" height="10" as="geometry" />
        </mxCell>
        <mxCell id="HbMBIwUDG-rfj2Xc_2_B-68" value="Descrizione" style="ellipse;whiteSpace=wrap;html=1;align=left;labelPosition=right;verticalLabelPosition=middle;verticalAlign=middle;fillColor=#FFFFFF;strokeColor=default;fillStyle=auto;gradientColor=none;" vertex="1" parent="1">
          <mxGeometry x="451" y="-1094" width="10" height="10" as="geometry" />
        </mxCell>
        <mxCell id="HbMBIwUDG-rfj2Xc_2_B-69" value="ID_Documento" style="ellipse;whiteSpace=wrap;html=1;align=left;fontStyle=4;labelBackgroundColor=none;labelPosition=right;verticalLabelPosition=middle;verticalAlign=middle;fillColor=#000000;" vertex="1" parent="1">
          <mxGeometry x="451" y="-1118" width="10" height="10" as="geometry" />
        </mxCell>
        <mxCell id="HbMBIwUDG-rfj2Xc_2_B-70" value="" style="endArrow=none;html=1;rounded=0;entryX=1.002;entryY=0.183;entryDx=0;entryDy=0;exitX=0;exitY=0.5;exitDx=0;exitDy=0;entryPerimeter=0;" edge="1" parent="1" source="HbMBIwUDG-rfj2Xc_2_B-69" target="HbMBIwUDG-rfj2Xc_2_B-39">
          <mxGeometry width="50" height="50" relative="1" as="geometry">
            <mxPoint x="321.0000000000002" y="-1117" as="sourcePoint" />
            <mxPoint x="341" y="-1099" as="targetPoint" />
          </mxGeometry>
        </mxCell>
        <mxCell id="HbMBIwUDG-rfj2Xc_2_B-71" value="" style="endArrow=none;html=1;rounded=0;exitX=0;exitY=0.5;exitDx=0;exitDy=0;entryX=0.997;entryY=0.332;entryDx=0;entryDy=0;entryPerimeter=0;" edge="1" parent="1" source="HbMBIwUDG-rfj2Xc_2_B-65" target="HbMBIwUDG-rfj2Xc_2_B-39">
          <mxGeometry width="50" height="50" relative="1" as="geometry">
            <mxPoint x="462" y="-1103" as="sourcePoint" />
            <mxPoint x="442" y="-1097" as="targetPoint" />
          </mxGeometry>
        </mxCell>
        <mxCell id="HbMBIwUDG-rfj2Xc_2_B-72" value="" style="endArrow=none;html=1;rounded=0;entryX=1;entryY=0.5;entryDx=0;entryDy=0;exitX=0;exitY=0.5;exitDx=0;exitDy=0;" edge="1" parent="1" source="HbMBIwUDG-rfj2Xc_2_B-68" target="HbMBIwUDG-rfj2Xc_2_B-39">
          <mxGeometry width="50" height="50" relative="1" as="geometry">
            <mxPoint x="472" y="-1093" as="sourcePoint" />
            <mxPoint x="461" y="-1082" as="targetPoint" />
          </mxGeometry>
        </mxCell>
        <mxCell id="HbMBIwUDG-rfj2Xc_2_B-73" value="" style="endArrow=none;html=1;rounded=0;entryX=0;entryY=0.5;entryDx=0;entryDy=0;exitX=1.003;exitY=0.824;exitDx=0;exitDy=0;exitPerimeter=0;" edge="1" parent="1" source="HbMBIwUDG-rfj2Xc_2_B-39" target="HbMBIwUDG-rfj2Xc_2_B-66">
          <mxGeometry width="50" height="50" relative="1" as="geometry">
            <mxPoint x="482" y="-1083" as="sourcePoint" />
            <mxPoint x="471" y="-1072" as="targetPoint" />
          </mxGeometry>
        </mxCell>
        <mxCell id="HbMBIwUDG-rfj2Xc_2_B-74" value="" style="endArrow=none;html=1;rounded=0;entryX=1;entryY=0.689;entryDx=0;entryDy=0;exitX=0;exitY=0.5;exitDx=0;exitDy=0;entryPerimeter=0;" edge="1" parent="1" source="HbMBIwUDG-rfj2Xc_2_B-67" target="HbMBIwUDG-rfj2Xc_2_B-39">
          <mxGeometry width="50" height="50" relative="1" as="geometry">
            <mxPoint x="452" y="-1083" as="sourcePoint" />
            <mxPoint x="441" y="-1072" as="targetPoint" />
          </mxGeometry>
        </mxCell>
        <mxCell id="HbMBIwUDG-rfj2Xc_2_B-76" value="" style="shape=flexArrow;endArrow=classic;rounded=0;html=1;entryX=0.5;entryY=1;entryDx=0;entryDy=0;" edge="1" parent="1" target="HbMBIwUDG-rfj2Xc_2_B-1">
          <mxGeometry width="50" height="50" relative="1" as="geometry">
            <mxPoint x="30.77000000000001" y="-847" as="sourcePoint" />
            <mxPoint x="30.77000000000001" y="-907" as="targetPoint" />
          </mxGeometry>
        </mxCell>
        <mxCell id="HbMBIwUDG-rfj2Xc_2_B-78" value="" style="endArrow=none;html=1;rounded=0;exitX=0.5;exitY=0;exitDx=0;exitDy=0;" edge="1" parent="1" source="HbMBIwUDG-rfj2Xc_2_B-82">
          <mxGeometry width="50" height="50" relative="1" as="geometry">
            <mxPoint x="-79" y="-820" as="sourcePoint" />
            <mxPoint x="140" y="-848" as="targetPoint" />
            <Array as="points">
              <mxPoint x="-80" y="-848" />
              <mxPoint x="140" y="-848" />
              <mxPoint x="140" y="-820" />
            </Array>
          </mxGeometry>
        </mxCell>
        <mxCell id="HbMBIwUDG-rfj2Xc_2_B-79" value="Capo_Team" style="whiteSpace=wrap;html=1;align=center;" vertex="1" parent="1">
          <mxGeometry x="91" y="-820" width="100" height="40" as="geometry" />
        </mxCell>
        <mxCell id="HbMBIwUDG-rfj2Xc_2_B-82" value="Utente_Partecipante" style="whiteSpace=wrap;html=1;align=center;" vertex="1" parent="1">
          <mxGeometry x="-140" y="-820" width="120" height="40" as="geometry" />
        </mxCell>
        <mxCell id="HbMBIwUDG-rfj2Xc_2_B-100" style="edgeStyle=none;shape=connector;curved=0;rounded=0;orthogonalLoop=1;jettySize=auto;html=1;exitX=1;exitY=0.5;exitDx=0;exitDy=0;entryX=0;entryY=0.5;entryDx=0;entryDy=0;labelBackgroundColor=default;strokeColor=default;align=center;verticalAlign=middle;fontFamily=Helvetica;fontSize=11;fontColor=default;endArrow=none;sourcePerimeterSpacing=0;targetPerimeterSpacing=0;" edge="1" parent="1" source="HbMBIwUDG-rfj2Xc_2_B-89" target="HbMBIwUDG-rfj2Xc_2_B-39">
          <mxGeometry relative="1" as="geometry" />
        </mxCell>
        <mxCell id="HbMBIwUDG-rfj2Xc_2_B-101" style="edgeStyle=none;shape=connector;curved=0;rounded=0;orthogonalLoop=1;jettySize=auto;html=1;exitX=0;exitY=0.5;exitDx=0;exitDy=0;entryX=0.5;entryY=0;entryDx=0;entryDy=0;labelBackgroundColor=default;strokeColor=default;align=center;verticalAlign=middle;fontFamily=Helvetica;fontSize=11;fontColor=default;endArrow=none;sourcePerimeterSpacing=0;targetPerimeterSpacing=0;" edge="1" parent="1">
          <mxGeometry relative="1" as="geometry">
            <mxPoint x="158.99999999999977" y="-1054" as="sourcePoint" />
            <mxPoint x="30" y="-957" as="targetPoint" />
            <Array as="points">
              <mxPoint x="89" y="-1090" />
              <mxPoint x="30" y="-1090" />
            </Array>
          </mxGeometry>
        </mxCell>
        <mxCell id="HbMBIwUDG-rfj2Xc_2_B-89" value="Modifica" style="shape=rhombus;perimeter=rhombusPerimeter;whiteSpace=wrap;html=1;align=center;" vertex="1" parent="1">
          <mxGeometry x="160" y="-1084" width="120" height="60" as="geometry" />
        </mxCell>
        <mxCell id="HbMBIwUDG-rfj2Xc_2_B-128" style="edgeStyle=none;shape=connector;curved=0;rounded=0;orthogonalLoop=1;jettySize=auto;html=1;exitX=1;exitY=0.25;exitDx=0;exitDy=0;entryX=0;entryY=0.5;entryDx=0;entryDy=0;labelBackgroundColor=default;strokeColor=default;align=center;verticalAlign=middle;fontFamily=Helvetica;fontSize=11;fontColor=default;endArrow=none;sourcePerimeterSpacing=0;targetPerimeterSpacing=0;" edge="1" parent="1" source="HbMBIwUDG-rfj2Xc_2_B-104" target="HbMBIwUDG-rfj2Xc_2_B-108">
          <mxGeometry relative="1" as="geometry" />
        </mxCell>
        <mxCell id="HbMBIwUDG-rfj2Xc_2_B-141" style="edgeStyle=none;shape=connector;curved=0;rounded=0;orthogonalLoop=1;jettySize=auto;html=1;exitX=0;exitY=0.5;exitDx=0;exitDy=0;entryX=1;entryY=0.5;entryDx=0;entryDy=0;labelBackgroundColor=default;strokeColor=default;align=center;verticalAlign=middle;fontFamily=Helvetica;fontSize=11;fontColor=default;endArrow=none;sourcePerimeterSpacing=0;targetPerimeterSpacing=0;" edge="1" parent="1" source="HbMBIwUDG-rfj2Xc_2_B-104" target="HbMBIwUDG-rfj2Xc_2_B-119">
          <mxGeometry relative="1" as="geometry" />
        </mxCell>
        <mxCell id="HbMBIwUDG-rfj2Xc_2_B-104" value="Report_Di_Progresso" style="whiteSpace=wrap;html=1;align=center;fontFamily=Helvetica;fontSize=11;fontColor=default;" vertex="1" parent="1">
          <mxGeometry x="-220" y="-310" width="110" height="40" as="geometry" />
        </mxCell>
        <mxCell id="HbMBIwUDG-rfj2Xc_2_B-108" value="Settimana" style="ellipse;whiteSpace=wrap;html=1;align=left;labelPosition=right;verticalLabelPosition=middle;verticalAlign=middle;fillColor=#FFFFFF;strokeColor=default;fillStyle=auto;gradientColor=none;fontFamily=Helvetica;fontSize=11;fontColor=default;" vertex="1" parent="1">
          <mxGeometry x="-101" y="-320" width="10" height="10" as="geometry" />
        </mxCell>
        <mxCell id="HbMBIwUDG-rfj2Xc_2_B-111" value="Attività_Completate" style="ellipse;whiteSpace=wrap;html=1;align=left;labelPosition=right;verticalLabelPosition=middle;verticalAlign=middle;fillColor=#FFFFFF;strokeColor=default;fillStyle=auto;gradientColor=none;fontFamily=Helvetica;fontSize=11;fontColor=default;" vertex="1" parent="1">
          <mxGeometry x="-101" y="-308" width="10" height="10" as="geometry" />
        </mxCell>
        <mxCell id="HbMBIwUDG-rfj2Xc_2_B-130" value="" style="edgeStyle=none;shape=connector;curved=0;rounded=0;orthogonalLoop=1;jettySize=auto;html=1;labelBackgroundColor=default;strokeColor=default;align=center;verticalAlign=middle;fontFamily=Helvetica;fontSize=11;fontColor=default;endArrow=none;sourcePerimeterSpacing=0;targetPerimeterSpacing=0;" edge="1" parent="1" source="HbMBIwUDG-rfj2Xc_2_B-112" target="HbMBIwUDG-rfj2Xc_2_B-104">
          <mxGeometry relative="1" as="geometry" />
        </mxCell>
        <mxCell id="HbMBIwUDG-rfj2Xc_2_B-112" value="Attività_in_corso" style="ellipse;whiteSpace=wrap;html=1;align=left;labelPosition=right;verticalLabelPosition=middle;verticalAlign=middle;fillColor=#FFFFFF;strokeColor=default;fillStyle=auto;gradientColor=none;fontFamily=Helvetica;fontSize=11;fontColor=default;" vertex="1" parent="1">
          <mxGeometry x="-101" y="-296" width="10" height="10" as="geometry" />
        </mxCell>
        <mxCell id="HbMBIwUDG-rfj2Xc_2_B-131" value="" style="edgeStyle=none;shape=connector;curved=0;rounded=0;orthogonalLoop=1;jettySize=auto;html=1;labelBackgroundColor=default;strokeColor=default;align=center;verticalAlign=middle;fontFamily=Helvetica;fontSize=11;fontColor=default;endArrow=none;sourcePerimeterSpacing=0;targetPerimeterSpacing=0;" edge="1" parent="1" source="HbMBIwUDG-rfj2Xc_2_B-113" target="HbMBIwUDG-rfj2Xc_2_B-104">
          <mxGeometry relative="1" as="geometry" />
        </mxCell>
        <mxCell id="HbMBIwUDG-rfj2Xc_2_B-113" value="Ritardi" style="ellipse;whiteSpace=wrap;html=1;align=left;labelPosition=right;verticalLabelPosition=middle;verticalAlign=middle;fillColor=#FFFFFF;strokeColor=default;fillStyle=auto;gradientColor=none;fontFamily=Helvetica;fontSize=11;fontColor=default;" vertex="1" parent="1">
          <mxGeometry x="-101" y="-283" width="10" height="10" as="geometry" />
        </mxCell>
        <mxCell id="HbMBIwUDG-rfj2Xc_2_B-117" value="Commenti" style="ellipse;whiteSpace=wrap;html=1;align=left;labelPosition=right;verticalLabelPosition=middle;verticalAlign=middle;fillColor=#FFFFFF;strokeColor=default;fillStyle=auto;gradientColor=none;fontFamily=Helvetica;fontSize=11;fontColor=default;" vertex="1" parent="1">
          <mxGeometry x="-101" y="-270" width="10" height="10" as="geometry" />
        </mxCell>
        <mxCell id="HbMBIwUDG-rfj2Xc_2_B-119" value="ID_Progetto" style="ellipse;whiteSpace=wrap;html=1;align=right;labelPosition=left;verticalLabelPosition=middle;verticalAlign=middle;fillStyle=auto;fontFamily=Helvetica;fontSize=11;" vertex="1" parent="1">
          <mxGeometry x="-250" y="-295" width="10" height="10" as="geometry" />
        </mxCell>
        <mxCell id="HbMBIwUDG-rfj2Xc_2_B-121" value="Generazione" style="shape=rhombus;perimeter=rhombusPerimeter;whiteSpace=wrap;html=1;align=center;" vertex="1" parent="1">
          <mxGeometry x="-230" y="-400" width="120" height="60" as="geometry" />
        </mxCell>
        <mxCell id="HbMBIwUDG-rfj2Xc_2_B-123" style="edgeStyle=none;shape=connector;curved=0;rounded=0;orthogonalLoop=1;jettySize=auto;html=1;exitX=0.5;exitY=1;exitDx=0;exitDy=0;entryX=0.455;entryY=0;entryDx=0;entryDy=0;entryPerimeter=0;labelBackgroundColor=default;strokeColor=default;align=center;verticalAlign=middle;fontFamily=Helvetica;fontSize=11;fontColor=default;endArrow=none;sourcePerimeterSpacing=0;targetPerimeterSpacing=0;" edge="1" parent="1" source="HbMBIwUDG-rfj2Xc_2_B-121" target="HbMBIwUDG-rfj2Xc_2_B-104">
          <mxGeometry relative="1" as="geometry" />
        </mxCell>
        <mxCell id="HbMBIwUDG-rfj2Xc_2_B-129" style="edgeStyle=none;shape=connector;curved=0;rounded=0;orthogonalLoop=1;jettySize=auto;html=1;exitX=0;exitY=0.5;exitDx=0;exitDy=0;entryX=1.001;entryY=0.364;entryDx=0;entryDy=0;entryPerimeter=0;labelBackgroundColor=default;strokeColor=default;align=center;verticalAlign=middle;fontFamily=Helvetica;fontSize=11;fontColor=default;endArrow=none;sourcePerimeterSpacing=0;targetPerimeterSpacing=0;" edge="1" parent="1" source="HbMBIwUDG-rfj2Xc_2_B-111" target="HbMBIwUDG-rfj2Xc_2_B-104">
          <mxGeometry relative="1" as="geometry" />
        </mxCell>
        <mxCell id="HbMBIwUDG-rfj2Xc_2_B-133" style="edgeStyle=none;shape=connector;curved=0;rounded=0;orthogonalLoop=1;jettySize=auto;html=1;exitX=0;exitY=0.5;exitDx=0;exitDy=0;entryX=1.004;entryY=0.892;entryDx=0;entryDy=0;entryPerimeter=0;labelBackgroundColor=default;strokeColor=default;align=center;verticalAlign=middle;fontFamily=Helvetica;fontSize=11;fontColor=default;endArrow=none;sourcePerimeterSpacing=0;targetPerimeterSpacing=0;" edge="1" parent="1" source="HbMBIwUDG-rfj2Xc_2_B-117" target="HbMBIwUDG-rfj2Xc_2_B-104">
          <mxGeometry relative="1" as="geometry" />
        </mxCell>
        <mxCell id="HbMBIwUDG-rfj2Xc_2_B-136" style="edgeStyle=none;shape=connector;curved=0;rounded=1;orthogonalLoop=1;jettySize=auto;html=1;exitX=0;exitY=0.5;exitDx=0;exitDy=0;labelBackgroundColor=default;strokeColor=default;align=center;verticalAlign=middle;fontFamily=Helvetica;fontSize=11;fontColor=default;endArrow=none;sourcePerimeterSpacing=0;targetPerimeterSpacing=0;" edge="1" parent="1" source="HbMBIwUDG-rfj2Xc_2_B-134">
          <mxGeometry relative="1" as="geometry">
            <mxPoint x="-231" y="-280" as="targetPoint" />
            <Array as="points">
              <mxPoint x="-231" y="-324" />
            </Array>
          </mxGeometry>
        </mxCell>
        <mxCell id="HbMBIwUDG-rfj2Xc_2_B-134" value="" style="ellipse;whiteSpace=wrap;html=1;align=right;fontStyle=4;labelBackgroundColor=none;labelPosition=left;verticalLabelPosition=middle;verticalAlign=middle;fillColor=#000000;fontFamily=Helvetica;fontSize=11;fontColor=default;" vertex="1" parent="1">
          <mxGeometry x="-141" y="-329" width="10" height="10" as="geometry" />
        </mxCell>
        <mxCell id="HbMBIwUDG-rfj2Xc_2_B-146" style="edgeStyle=none;shape=connector;curved=0;rounded=0;orthogonalLoop=1;jettySize=auto;html=1;exitX=0.5;exitY=1;exitDx=0;exitDy=0;entryX=0.5;entryY=0;entryDx=0;entryDy=0;labelBackgroundColor=default;strokeColor=default;align=center;verticalAlign=middle;fontFamily=Helvetica;fontSize=11;fontColor=default;endArrow=none;sourcePerimeterSpacing=0;targetPerimeterSpacing=0;" edge="1" parent="1" source="HbMBIwUDG-rfj2Xc_2_B-143" target="HbMBIwUDG-rfj2Xc_2_B-145">
          <mxGeometry relative="1" as="geometry" />
        </mxCell>
        <mxCell id="HbMBIwUDG-rfj2Xc_2_B-143" value="Realizzazione" style="shape=rhombus;perimeter=rhombusPerimeter;whiteSpace=wrap;html=1;align=center;fontFamily=Helvetica;fontSize=11;fontColor=default;" vertex="1" parent="1">
          <mxGeometry x="178" y="-400" width="120" height="60" as="geometry" />
        </mxCell>
        <mxCell id="HbMBIwUDG-rfj2Xc_2_B-145" value="Comunicazione_Progetto" style="whiteSpace=wrap;html=1;align=center;fontFamily=Helvetica;fontSize=11;fontColor=default;" vertex="1" parent="1">
          <mxGeometry x="170.5" y="-308" width="135" height="40" as="geometry" />
        </mxCell>
        <mxCell id="HbMBIwUDG-rfj2Xc_2_B-161" style="edgeStyle=none;shape=connector;curved=0;rounded=0;orthogonalLoop=1;jettySize=auto;html=1;exitX=0;exitY=0.5;exitDx=0;exitDy=0;entryX=1;entryY=0.5;entryDx=0;entryDy=0;labelBackgroundColor=default;strokeColor=default;align=center;verticalAlign=middle;fontFamily=Helvetica;fontSize=11;fontColor=default;endArrow=none;sourcePerimeterSpacing=0;targetPerimeterSpacing=0;" edge="1" parent="1" source="HbMBIwUDG-rfj2Xc_2_B-156" target="HbMBIwUDG-rfj2Xc_2_B-145">
          <mxGeometry relative="1" as="geometry" />
        </mxCell>
        <mxCell id="HbMBIwUDG-rfj2Xc_2_B-156" value="Contenuto" style="ellipse;whiteSpace=wrap;html=1;align=left;labelPosition=right;verticalLabelPosition=middle;verticalAlign=middle;fillColor=#FFFFFF;strokeColor=default;fillStyle=auto;gradientColor=none;" vertex="1" parent="1">
          <mxGeometry x="318" y="-293" width="10" height="10" as="geometry" />
        </mxCell>
        <mxCell id="HbMBIwUDG-rfj2Xc_2_B-162" style="edgeStyle=none;shape=connector;curved=0;rounded=0;orthogonalLoop=1;jettySize=auto;html=1;exitX=0;exitY=0.5;exitDx=0;exitDy=0;entryX=1;entryY=0.75;entryDx=0;entryDy=0;labelBackgroundColor=default;strokeColor=default;align=center;verticalAlign=middle;fontFamily=Helvetica;fontSize=11;fontColor=default;endArrow=none;sourcePerimeterSpacing=0;targetPerimeterSpacing=0;" edge="1" parent="1" source="HbMBIwUDG-rfj2Xc_2_B-158" target="HbMBIwUDG-rfj2Xc_2_B-145">
          <mxGeometry relative="1" as="geometry" />
        </mxCell>
        <mxCell id="HbMBIwUDG-rfj2Xc_2_B-158" value="Data_Invio" style="ellipse;whiteSpace=wrap;html=1;align=left;labelPosition=right;verticalLabelPosition=middle;verticalAlign=middle;fillColor=#FFFFFF;strokeColor=default;fillStyle=auto;gradientColor=none;" vertex="1" parent="1">
          <mxGeometry x="318" y="-281" width="10" height="10" as="geometry" />
        </mxCell>
        <mxCell id="HbMBIwUDG-rfj2Xc_2_B-160" style="edgeStyle=none;shape=connector;curved=0;rounded=0;orthogonalLoop=1;jettySize=auto;html=1;exitX=0;exitY=0.5;exitDx=0;exitDy=0;entryX=1;entryY=0.25;entryDx=0;entryDy=0;labelBackgroundColor=default;strokeColor=default;align=center;verticalAlign=middle;fontFamily=Helvetica;fontSize=11;fontColor=default;endArrow=none;sourcePerimeterSpacing=0;targetPerimeterSpacing=0;" edge="1" parent="1" source="HbMBIwUDG-rfj2Xc_2_B-159" target="HbMBIwUDG-rfj2Xc_2_B-145">
          <mxGeometry relative="1" as="geometry" />
        </mxCell>
        <mxCell id="HbMBIwUDG-rfj2Xc_2_B-159" value="ID_Comunicazione" style="ellipse;whiteSpace=wrap;html=1;align=left;fontStyle=4;labelBackgroundColor=none;labelPosition=right;verticalLabelPosition=middle;verticalAlign=middle;fillColor=#000000;" vertex="1" parent="1">
          <mxGeometry x="318" y="-305" width="10" height="10" as="geometry" />
        </mxCell>
        <mxCell id="HbMBIwUDG-rfj2Xc_2_B-168" style="edgeStyle=none;shape=connector;curved=0;rounded=0;orthogonalLoop=1;jettySize=auto;html=1;exitX=1;exitY=0.5;exitDx=0;exitDy=0;entryX=0;entryY=0.5;entryDx=0;entryDy=0;labelBackgroundColor=default;strokeColor=default;align=center;verticalAlign=middle;fontFamily=Helvetica;fontSize=11;fontColor=default;endArrow=none;sourcePerimeterSpacing=0;targetPerimeterSpacing=0;" edge="1" parent="1" source="HbMBIwUDG-rfj2Xc_2_B-163" target="HbMBIwUDG-rfj2Xc_2_B-145">
          <mxGeometry relative="1" as="geometry" />
        </mxCell>
        <mxCell id="HbMBIwUDG-rfj2Xc_2_B-163" value="ID_Progetto" style="ellipse;whiteSpace=wrap;html=1;align=right;labelPosition=left;verticalLabelPosition=middle;verticalAlign=middle;fillStyle=auto;fontFamily=Helvetica;fontSize=11;" vertex="1" parent="1">
          <mxGeometry x="142" y="-293" width="10" height="10" as="geometry" />
        </mxCell>
        <mxCell id="HbMBIwUDG-rfj2Xc_2_B-164" value="" style="ellipse;whiteSpace=wrap;html=1;align=right;fontStyle=4;labelBackgroundColor=none;labelPosition=left;verticalLabelPosition=middle;verticalAlign=middle;fillColor=#000000;fontFamily=Helvetica;fontSize=11;fontColor=default;" vertex="1" parent="1">
          <mxGeometry x="270" y="-327" width="10" height="10" as="geometry" />
        </mxCell>
        <mxCell id="HbMBIwUDG-rfj2Xc_2_B-166" style="edgeStyle=none;shape=connector;curved=0;rounded=1;orthogonalLoop=1;jettySize=auto;html=1;exitX=0;exitY=0.5;exitDx=0;exitDy=0;labelBackgroundColor=default;strokeColor=default;align=center;verticalAlign=middle;fontFamily=Helvetica;fontSize=11;fontColor=default;endArrow=none;sourcePerimeterSpacing=0;targetPerimeterSpacing=0;" edge="1" parent="1" source="HbMBIwUDG-rfj2Xc_2_B-164">
          <mxGeometry relative="1" as="geometry">
            <mxPoint x="160" y="-278" as="targetPoint" />
            <mxPoint x="250" y="-322" as="sourcePoint" />
            <Array as="points">
              <mxPoint x="160" y="-322" />
            </Array>
          </mxGeometry>
        </mxCell>
        <mxCell id="HbMBIwUDG-rfj2Xc_2_B-169" value="(1,1)" style="text;html=1;strokeColor=none;fillColor=none;align=center;verticalAlign=middle;whiteSpace=wrap;rounded=0;fontSize=11;fontFamily=Helvetica;fontColor=default;" vertex="1" parent="1">
          <mxGeometry x="82" y="-645" width="60" height="30" as="geometry" />
        </mxCell>
        <mxCell id="HbMBIwUDG-rfj2Xc_2_B-170" value="(0,1)" style="text;html=1;strokeColor=none;fillColor=none;align=center;verticalAlign=middle;whiteSpace=wrap;rounded=0;fontSize=11;fontFamily=Helvetica;fontColor=default;" vertex="1" parent="1">
          <mxGeometry x="131" y="-780" width="60" height="30" as="geometry" />
        </mxCell>
        <mxCell id="HbMBIwUDG-rfj2Xc_2_B-171" value="(0,1)" style="text;html=1;strokeColor=none;fillColor=none;align=center;verticalAlign=middle;whiteSpace=wrap;rounded=0;fontSize=11;fontFamily=Helvetica;fontColor=default;" vertex="1" parent="1">
          <mxGeometry x="-94" y="-766" width="60" height="30" as="geometry" />
        </mxCell>
        <mxCell id="HbMBIwUDG-rfj2Xc_2_B-172" value="(1,N)" style="text;html=1;strokeColor=none;fillColor=none;align=center;verticalAlign=middle;whiteSpace=wrap;rounded=0;movable=1;resizable=1;rotatable=1;deletable=1;editable=1;locked=0;connectable=1;fontSize=11;fontFamily=Helvetica;fontColor=default;" vertex="1" parent="1">
          <mxGeometry x="-59" y="-676" width="60" height="30" as="geometry" />
        </mxCell>
        <mxCell id="HbMBIwUDG-rfj2Xc_2_B-173" value="(0,N)" style="text;html=1;strokeColor=none;fillColor=none;align=center;verticalAlign=middle;whiteSpace=wrap;rounded=0;fontSize=11;fontFamily=Helvetica;fontColor=default;" vertex="1" parent="1">
          <mxGeometry x="20" y="-595" width="60" height="30" as="geometry" />
        </mxCell>
        <mxCell id="HbMBIwUDG-rfj2Xc_2_B-174" value="(0,1)" style="text;html=1;strokeColor=none;fillColor=none;align=center;verticalAlign=middle;whiteSpace=wrap;rounded=0;fontSize=11;fontFamily=Helvetica;fontColor=default;" vertex="1" parent="1">
          <mxGeometry x="22" y="-506" width="60" height="30" as="geometry" />
        </mxCell>
        <mxCell id="HbMBIwUDG-rfj2Xc_2_B-176" value="(1,N)" style="text;html=1;strokeColor=none;fillColor=none;align=center;verticalAlign=middle;whiteSpace=wrap;rounded=0;movable=1;resizable=1;rotatable=1;deletable=1;editable=1;locked=0;connectable=1;fontSize=11;fontFamily=Helvetica;fontColor=default;" vertex="1" parent="1">
          <mxGeometry x="160" y="-476" width="60" height="30" as="geometry" />
        </mxCell>
        <mxCell id="HbMBIwUDG-rfj2Xc_2_B-177" value="(1,1)" style="text;html=1;strokeColor=none;fillColor=none;align=center;verticalAlign=middle;whiteSpace=wrap;rounded=0;fontSize=11;fontFamily=Helvetica;fontColor=default;" vertex="1" parent="1">
          <mxGeometry x="400" y="-740" width="60" height="30" as="geometry" />
        </mxCell>
        <mxCell id="HbMBIwUDG-rfj2Xc_2_B-178" value="(0,N)" style="text;html=1;strokeColor=none;fillColor=none;align=center;verticalAlign=middle;whiteSpace=wrap;rounded=0;fontSize=11;fontFamily=Helvetica;fontColor=default;" vertex="1" parent="1">
          <mxGeometry x="91" y="-966" width="60" height="30" as="geometry" />
        </mxCell>
        <mxCell id="HbMBIwUDG-rfj2Xc_2_B-180" value="(0,1)" style="text;html=1;strokeColor=none;fillColor=none;align=center;verticalAlign=middle;whiteSpace=wrap;rounded=0;fontSize=11;fontFamily=Helvetica;fontColor=default;" vertex="1" parent="1">
          <mxGeometry x="280" y="-967" width="60" height="30" as="geometry" />
        </mxCell>
        <mxCell id="HbMBIwUDG-rfj2Xc_2_B-181" value="(0,N)" style="text;html=1;strokeColor=none;fillColor=none;align=center;verticalAlign=middle;whiteSpace=wrap;rounded=0;fontSize=11;fontFamily=Helvetica;fontColor=default;" vertex="1" parent="1">
          <mxGeometry x="92" y="-1069" width="60" height="30" as="geometry" />
        </mxCell>
        <mxCell id="HbMBIwUDG-rfj2Xc_2_B-182" value="(0,N)" style="text;html=1;strokeColor=none;fillColor=none;align=center;verticalAlign=middle;whiteSpace=wrap;rounded=0;fontSize=11;fontFamily=Helvetica;fontColor=default;" vertex="1" parent="1">
          <mxGeometry x="91" y="-1139" width="60" height="30" as="geometry" />
        </mxCell>
        <mxCell id="HbMBIwUDG-rfj2Xc_2_B-183" value="(1,1)" style="text;html=1;strokeColor=none;fillColor=none;align=center;verticalAlign=middle;whiteSpace=wrap;rounded=0;fontSize=11;fontFamily=Helvetica;fontColor=default;" vertex="1" parent="1">
          <mxGeometry x="293" y="-1128" width="60" height="30" as="geometry" />
        </mxCell>
        <mxCell id="HbMBIwUDG-rfj2Xc_2_B-184" value="(0,1)" style="text;html=1;strokeColor=none;fillColor=none;align=center;verticalAlign=middle;whiteSpace=wrap;rounded=0;fontSize=11;fontFamily=Helvetica;fontColor=default;" vertex="1" parent="1">
          <mxGeometry x="295.5" y="-1084" width="60" height="30" as="geometry" />
        </mxCell>
        <mxCell id="HbMBIwUDG-rfj2Xc_2_B-194" style="edgeStyle=none;shape=connector;curved=0;rounded=1;orthogonalLoop=1;jettySize=auto;html=1;labelBackgroundColor=default;strokeColor=default;align=center;verticalAlign=middle;fontFamily=Helvetica;fontSize=11;fontColor=default;endArrow=none;sourcePerimeterSpacing=0;targetPerimeterSpacing=0;" edge="1" parent="1" target="HbMBIwUDG-rfj2Xc_2_B-187">
          <mxGeometry relative="1" as="geometry">
            <mxPoint x="440" y="-1127" as="sourcePoint" />
            <Array as="points">
              <mxPoint x="300" y="-1127" />
            </Array>
          </mxGeometry>
        </mxCell>
        <mxCell id="HbMBIwUDG-rfj2Xc_2_B-185" value="Creato_Da" style="ellipse;whiteSpace=wrap;html=1;align=center;labelPosition=center;verticalLabelPosition=top;verticalAlign=bottom;fillStyle=auto;fontFamily=Helvetica;fontSize=11;" vertex="1" parent="1">
          <mxGeometry x="409" y="-1141" width="10" height="10" as="geometry" />
        </mxCell>
        <mxCell id="HbMBIwUDG-rfj2Xc_2_B-187" value="" style="ellipse;whiteSpace=wrap;html=1;align=right;fontStyle=4;labelBackgroundColor=none;labelPosition=left;verticalLabelPosition=middle;verticalAlign=middle;fillColor=#000000;fontFamily=Helvetica;fontSize=11;fontColor=default;" vertex="1" parent="1">
          <mxGeometry x="294.5" y="-1107" width="10" height="10" as="geometry" />
        </mxCell>
        <mxCell id="HbMBIwUDG-rfj2Xc_2_B-188" value="Modificato_Da" style="ellipse;whiteSpace=wrap;html=1;align=center;labelPosition=center;verticalLabelPosition=bottom;verticalAlign=top;fillStyle=auto;fontFamily=Helvetica;fontSize=11;" vertex="1" parent="1">
          <mxGeometry x="409" y="-1049" width="10" height="10" as="geometry" />
        </mxCell>
        <mxCell id="HbMBIwUDG-rfj2Xc_2_B-189" value="" style="ellipse;whiteSpace=wrap;html=1;align=right;fontStyle=4;labelBackgroundColor=none;labelPosition=left;verticalLabelPosition=middle;verticalAlign=middle;fillColor=#000000;fontFamily=Helvetica;fontSize=11;fontColor=default;" vertex="1" parent="1">
          <mxGeometry x="294.5" y="-1081" width="10" height="10" as="geometry" />
        </mxCell>
        <mxCell id="HbMBIwUDG-rfj2Xc_2_B-192" style="edgeStyle=none;shape=connector;curved=0;rounded=0;orthogonalLoop=1;jettySize=auto;html=1;exitX=0.5;exitY=1;exitDx=0;exitDy=0;entryX=0.73;entryY=0.019;entryDx=0;entryDy=0;entryPerimeter=0;labelBackgroundColor=default;strokeColor=default;align=center;verticalAlign=middle;fontFamily=Helvetica;fontSize=11;fontColor=default;endArrow=none;sourcePerimeterSpacing=0;targetPerimeterSpacing=0;" edge="1" parent="1" source="HbMBIwUDG-rfj2Xc_2_B-185" target="HbMBIwUDG-rfj2Xc_2_B-39">
          <mxGeometry relative="1" as="geometry" />
        </mxCell>
        <mxCell id="HbMBIwUDG-rfj2Xc_2_B-193" style="edgeStyle=none;shape=connector;curved=0;rounded=0;orthogonalLoop=1;jettySize=auto;html=1;exitX=0.5;exitY=0;exitDx=0;exitDy=0;entryX=0.73;entryY=0.966;entryDx=0;entryDy=0;entryPerimeter=0;labelBackgroundColor=default;strokeColor=default;align=center;verticalAlign=middle;fontFamily=Helvetica;fontSize=11;fontColor=default;endArrow=none;sourcePerimeterSpacing=0;targetPerimeterSpacing=0;" edge="1" parent="1" source="HbMBIwUDG-rfj2Xc_2_B-188" target="HbMBIwUDG-rfj2Xc_2_B-39">
          <mxGeometry relative="1" as="geometry" />
        </mxCell>
        <mxCell id="HbMBIwUDG-rfj2Xc_2_B-197" value="" style="endArrow=none;html=1;rounded=1;labelBackgroundColor=default;strokeColor=default;align=center;verticalAlign=middle;fontFamily=Helvetica;fontSize=11;fontColor=default;sourcePerimeterSpacing=0;targetPerimeterSpacing=0;shape=connector;curved=0;exitX=0.5;exitY=1;exitDx=0;exitDy=0;" edge="1" parent="1" source="HbMBIwUDG-rfj2Xc_2_B-189">
          <mxGeometry width="50" height="50" relative="1" as="geometry">
            <mxPoint x="300" y="-1070" as="sourcePoint" />
            <mxPoint x="440" y="-1052" as="targetPoint" />
            <Array as="points">
              <mxPoint x="300" y="-1052" />
            </Array>
          </mxGeometry>
        </mxCell>
        <mxCell id="HbMBIwUDG-rfj2Xc_2_B-201" value="(1,1)" style="text;html=1;strokeColor=none;fillColor=none;align=center;verticalAlign=middle;whiteSpace=wrap;rounded=0;fontSize=11;fontFamily=Helvetica;fontColor=default;" vertex="1" parent="1">
          <mxGeometry x="-101" y="-420" width="60" height="30" as="geometry" />
        </mxCell>
        <mxCell id="HbMBIwUDG-rfj2Xc_2_B-202" value="(1,1)" style="text;html=1;strokeColor=none;fillColor=none;align=center;verticalAlign=middle;whiteSpace=wrap;rounded=0;fontSize=11;fontFamily=Helvetica;fontColor=default;" vertex="1" parent="1">
          <mxGeometry x="-220" y="-350" width="60" height="30" as="geometry" />
        </mxCell>
        <mxCell id="HbMBIwUDG-rfj2Xc_2_B-203" value="(0,N)" style="text;html=1;strokeColor=none;fillColor=none;align=center;verticalAlign=middle;whiteSpace=wrap;rounded=0;fontSize=11;fontFamily=Helvetica;fontColor=default;" vertex="1" parent="1">
          <mxGeometry x="111" y="-420" width="60" height="30" as="geometry" />
        </mxCell>
        <mxCell id="HbMBIwUDG-rfj2Xc_2_B-204" value="(1,1)" style="text;html=1;strokeColor=none;fillColor=none;align=center;verticalAlign=middle;whiteSpace=wrap;rounded=0;fontSize=11;fontFamily=Helvetica;fontColor=default;" vertex="1" parent="1">
          <mxGeometry x="191" y="-350" width="60" height="30" as="geometry" />
        </mxCell>
      </root>
    </mxGraphModel>
  </diagram>
</mxfile>
